<svg width="257" height="18" viewBox="0 0 257 18" fill="none" xmlns="http://www.w3.org/2000/svg">
<path d="M9.96 4.624V13H8.28V7.552L6.036 13H4.764L2.508 7.552V13H0.828V4.624H2.736L5.4 10.852L8.064 4.624H9.96ZM15.773 13.108C15.133 13.108 14.557 12.968 14.045 12.688C13.533 12.4 13.129 11.996 12.833 11.476C12.545 10.956 12.401 10.356 12.401 9.676C12.401 8.996 12.549 8.396 12.845 7.876C13.149 7.356 13.561 6.956 14.081 6.676C14.601 6.388 15.181 6.244 15.821 6.244C16.461 6.244 17.041 6.388 17.561 6.676C18.081 6.956 18.489 7.356 18.785 7.876C19.089 8.396 19.241 8.996 19.241 9.676C19.241 10.356 19.085 10.956 18.773 11.476C18.469 11.996 18.053 12.4 17.525 12.688C17.005 12.968 16.421 13.108 15.773 13.108ZM15.773 11.644C16.077 11.644 16.361 11.572 16.625 11.428C16.897 11.276 17.113 11.052 17.273 10.756C17.433 10.46 17.513 10.1 17.513 9.676C17.513 9.044 17.345 8.56 17.009 8.224C16.681 7.88 16.277 7.708 15.797 7.708C15.317 7.708 14.913 7.88 14.585 8.224C14.265 8.56 14.105 9.044 14.105 9.676C14.105 10.308 14.261 10.796 14.573 11.14C14.893 11.476 15.293 11.644 15.773 11.644ZM23.3533 7.384C23.5693 7.032 23.8493 6.756 24.1933 6.556C24.5453 6.356 24.9453 6.256 25.3933 6.256V8.02H24.9493C24.4213 8.02 24.0213 8.144 23.7493 8.392C23.4853 8.64 23.3533 9.072 23.3533 9.688V13H21.6733V6.352H23.3533V7.384ZM33.9049 9.532C33.9049 9.772 33.8889 9.988 33.8569 10.18H28.9969C29.0369 10.66 29.2049 11.036 29.5009 11.308C29.7969 11.58 30.1609 11.716 30.5929 11.716C31.2169 11.716 31.6609 11.448 31.9249 10.912H33.7369C33.5449 11.552 33.1769 12.08 32.6329 12.496C32.0889 12.904 31.4209 13.108 30.6289 13.108C29.9889 13.108 29.4129 12.968 28.9009 12.688C28.3969 12.4 28.0009 11.996 27.7129 11.476C27.4329 10.956 27.2929 10.356 27.2929 9.676C27.2929 8.988 27.4329 8.384 27.7129 7.864C27.9929 7.344 28.3849 6.944 28.8889 6.664C29.3929 6.384 29.9729 6.244 30.6289 6.244C31.2609 6.244 31.8249 6.38 32.3209 6.652C32.8249 6.924 33.2129 7.312 33.4849 7.816C33.7649 8.312 33.9049 8.884 33.9049 9.532ZM32.1649 9.052C32.1569 8.62 32.0009 8.276 31.6969 8.02C31.3929 7.756 31.0209 7.624 30.5809 7.624C30.1649 7.624 29.8129 7.752 29.5249 8.008C29.2449 8.256 29.0729 8.604 29.0089 9.052H32.1649ZM42.0705 4.624V13H40.3905V4.624H42.0705ZM48.6143 6.256C49.4063 6.256 50.0463 6.508 50.5343 7.012C51.0223 7.508 51.2663 8.204 51.2663 9.1V13H49.5863V9.328C49.5863 8.8 49.4543 8.396 49.1903 8.116C48.9263 7.828 48.5663 7.684 48.1103 7.684C47.6463 7.684 47.2783 7.828 47.0063 8.116C46.7423 8.396 46.6103 8.8 46.6103 9.328V13H44.9303V6.352H46.6103V7.18C46.8343 6.892 47.1183 6.668 47.4623 6.508C47.8143 6.34 48.1983 6.256 48.6143 6.256ZM57.1119 7.732H55.9479V13H54.2439V7.732H53.4879V6.352H54.2439V6.016C54.2439 5.2 54.4759 4.6 54.9399 4.216C55.4039 3.832 56.1039 3.652 57.0399 3.676V5.092C56.6319 5.084 56.3479 5.152 56.1879 5.296C56.0279 5.44 55.9479 5.7 55.9479 6.076V6.352H57.1119V7.732ZM62.3527 13.108C61.7127 13.108 61.1367 12.968 60.6247 12.688C60.1127 12.4 59.7087 11.996 59.4127 11.476C59.1247 10.956 58.9807 10.356 58.9807 9.676C58.9807 8.996 59.1287 8.396 59.4247 7.876C59.7287 7.356 60.1407 6.956 60.6607 6.676C61.1807 6.388 61.7607 6.244 62.4007 6.244C63.0407 6.244 63.6207 6.388 64.1407 6.676C64.6607 6.956 65.0687 7.356 65.3647 7.876C65.6687 8.396 65.8207 8.996 65.8207 9.676C65.8207 10.356 65.6647 10.956 65.3527 11.476C65.0487 11.996 64.6327 12.4 64.1047 12.688C63.5847 12.968 63.0007 13.108 62.3527 13.108ZM62.3527 11.644C62.6567 11.644 62.9407 11.572 63.2047 11.428C63.4767 11.276 63.6927 11.052 63.8527 10.756C64.0127 10.46 64.0927 10.1 64.0927 9.676C64.0927 9.044 63.9247 8.56 63.5887 8.224C63.2607 7.88 62.8567 7.708 62.3767 7.708C61.8967 7.708 61.4927 7.88 61.1647 8.224C60.8447 8.56 60.6847 9.044 60.6847 9.676C60.6847 10.308 60.8407 10.796 61.1527 11.14C61.4727 11.476 61.8727 11.644 62.3527 11.644Z" fill="black" fill-opacity="0.6"/>
<g clip-path="url(#clip0_230_409)">
<path d="M249.113 4.49606C249.113 4.64218 249.084 4.78686 249.028 4.92185C248.972 5.05684 248.89 5.17949 248.787 5.28281C248.683 5.38612 248.561 5.46808 248.426 5.52399C248.291 5.57991 248.146 5.60869 248 5.60869C247.854 5.60869 247.709 5.57991 247.574 5.52399C247.439 5.46808 247.317 5.38612 247.213 5.28281C247.11 5.17949 247.028 5.05684 246.972 4.92185C246.916 4.78686 246.887 4.64218 246.887 4.49606C246.887 4.20098 247.005 3.91798 247.213 3.70932C247.422 3.50066 247.705 3.38344 248 3.38344C248.295 3.38344 248.578 3.50066 248.787 3.70932C248.995 3.91798 249.113 4.20098 249.113 4.49606ZM247.921 6.732C248.465 6.732 248.906 7.17244 248.906 7.71638V13.6733C248.906 13.9343 248.802 14.1847 248.617 14.3693C248.433 14.5539 248.182 14.6576 247.921 14.6576C247.66 14.6576 247.41 14.5539 247.225 14.3693C247.041 14.1847 246.937 13.9343 246.937 13.6733V7.71638C246.937 7.17244 247.378 6.732 247.921 6.732Z" fill="black" fill-opacity="0.6"/>
<path d="M242.375 0.5625C242.006 0.5625 241.64 0.635247 241.299 0.776589C240.957 0.91793 240.647 1.1251 240.386 1.38626C239.859 1.91371 239.562 2.62908 239.562 3.375V14.625C239.562 15.3709 239.859 16.0863 240.386 16.6137C240.647 16.8749 240.957 17.0821 241.299 17.2234C241.64 17.3648 242.006 17.4375 242.375 17.4375H253.625C254.371 17.4375 255.086 17.1412 255.614 16.6137C256.141 16.0863 256.438 15.3709 256.438 14.625V3.375C256.438 3.00566 256.365 2.63993 256.223 2.2987C256.082 1.95747 255.875 1.64743 255.614 1.38626C255.353 1.1251 255.043 0.91793 254.701 0.776589C254.36 0.635247 253.994 0.5625 253.625 0.5625H242.375ZM240.688 3.375C240.688 2.92745 240.865 2.49822 241.182 2.18176C241.498 1.86529 241.927 1.6875 242.375 1.6875H253.625C254.073 1.6875 254.502 1.86529 254.818 2.18176C255.135 2.49822 255.312 2.92745 255.312 3.375V14.625C255.312 15.0726 255.135 15.5018 254.818 15.8182C254.502 16.1347 254.073 16.3125 253.625 16.3125H242.375C241.927 16.3125 241.498 16.1347 241.182 15.8182C240.865 15.5018 240.688 15.0726 240.688 14.625V3.375Z" fill="black" fill-opacity="0.6"/>
</g>
<defs>
<clipPath id="clip0_230_409">
<rect width="18" height="18" fill="white" transform="translate(239)"/>
</clipPath>
</defs>
</svg>
