<svg width="1026" height="425" viewBox="0 0 1026 425" fill="none" xmlns="http://www.w3.org/2000/svg">
<path d="M26.5 5V405" stroke="#CDCDCD"/>
<path d="M137.5 5V405" stroke="#CDCDCD"/>
<path d="M247.5 5V405" stroke="#CDCDCD"/>
<path d="M358.5 5V405" stroke="#CDCDCD"/>
<path d="M468.5 5V405" stroke="#CDCDCD"/>
<path d="M579.5 5V405" stroke="#CDCDCD"/>
<path d="M689.5 5V405" stroke="#CDCDCD"/>
<path d="M800.5 5V405" stroke="#CDCDCD"/>
<path d="M910.5 5V405" stroke="#CDCDCD"/>
<path d="M1022.5 5V405" stroke="#CDCDCD"/>
<path d="M27 405.5H1022" stroke="#CDCDCD"/>
<path d="M27 338.5H1022" stroke="#CDCDCD"/>
<path d="M27 272.5H1022" stroke="#CDCDCD"/>
<path d="M27 205.5H1022" stroke="#CDCDCD"/>
<path d="M27 138.5H1022" stroke="#CDCDCD"/>
<path d="M27 72.5H1022" stroke="#CDCDCD"/>
<path d="M27 4.5H1022" stroke="#CDCDCD"/>
<path d="M27 405.5H1022" stroke="#CDCDCD"/>
<path d="M26.5 5V405" stroke="#CDCDCD"/>
<path d="M20.9453 414.891V422H20.0176V414.891H20.9453ZM23.2305 414.891V415.662H17.7373V414.891H23.2305ZM25.8525 422.098C25.4847 422.098 25.151 422.036 24.8516 421.912C24.5553 421.785 24.2998 421.608 24.085 421.38C23.8734 421.152 23.7106 420.882 23.5967 420.569C23.4827 420.257 23.4258 419.915 23.4258 419.544V419.339C23.4258 418.909 23.4893 418.527 23.6162 418.191C23.7432 417.853 23.9157 417.566 24.1338 417.332C24.3519 417.098 24.5993 416.92 24.876 416.8C25.1527 416.679 25.4391 416.619 25.7354 416.619C26.113 416.619 26.4385 416.684 26.7119 416.814C26.9886 416.945 27.2148 417.127 27.3906 417.361C27.5664 417.592 27.6966 417.866 27.7812 418.182C27.8659 418.494 27.9082 418.836 27.9082 419.207V419.612H23.9629V418.875H27.0049V418.807C26.9919 418.572 26.943 418.344 26.8584 418.123C26.777 417.902 26.6468 417.719 26.4678 417.576C26.2887 417.433 26.0446 417.361 25.7354 417.361C25.5303 417.361 25.3415 417.405 25.1689 417.493C24.9964 417.578 24.8483 417.705 24.7246 417.874C24.6009 418.043 24.5049 418.25 24.4365 418.494C24.3682 418.738 24.334 419.02 24.334 419.339V419.544C24.334 419.795 24.3682 420.031 24.4365 420.252C24.5081 420.47 24.6107 420.662 24.7441 420.828C24.8809 420.994 25.0452 421.124 25.2373 421.219C25.4326 421.313 25.654 421.36 25.9014 421.36C26.2204 421.36 26.4906 421.295 26.7119 421.165C26.9333 421.035 27.127 420.861 27.293 420.643L27.8398 421.077C27.7259 421.25 27.5811 421.414 27.4053 421.57C27.2295 421.727 27.013 421.854 26.7559 421.951C26.502 422.049 26.2008 422.098 25.8525 422.098ZM29.5732 416.717L30.7305 418.641L31.9023 416.717H32.9619L31.2334 419.324L33.0156 422H31.9707L30.75 420.018L29.5293 422H28.4795L30.2568 419.324L28.5332 416.717H29.5732ZM36.1357 416.717V417.41H33.2793V416.717H36.1357ZM34.2461 415.433H35.1494V420.691C35.1494 420.87 35.1771 421.006 35.2324 421.097C35.2878 421.188 35.3594 421.248 35.4473 421.277C35.5352 421.307 35.6296 421.321 35.7305 421.321C35.8053 421.321 35.8835 421.315 35.9648 421.302C36.0495 421.285 36.113 421.272 36.1553 421.263L36.1602 422C36.0885 422.023 35.9941 422.044 35.877 422.063C35.763 422.086 35.6247 422.098 35.4619 422.098C35.2406 422.098 35.0371 422.054 34.8516 421.966C34.666 421.878 34.5179 421.731 34.4072 421.526C34.2998 421.318 34.2461 421.038 34.2461 420.687V415.433Z" fill="#1B1B1B"/>
<path d="M131.501 414.891V422H130.573V414.891H131.501ZM133.786 414.891V415.662H128.293V414.891H133.786ZM136.408 422.098C136.04 422.098 135.707 422.036 135.407 421.912C135.111 421.785 134.855 421.608 134.641 421.38C134.429 421.152 134.266 420.882 134.152 420.569C134.038 420.257 133.981 419.915 133.981 419.544V419.339C133.981 418.909 134.045 418.527 134.172 418.191C134.299 417.853 134.471 417.566 134.689 417.332C134.907 417.098 135.155 416.92 135.432 416.8C135.708 416.679 135.995 416.619 136.291 416.619C136.668 416.619 136.994 416.684 137.267 416.814C137.544 416.945 137.77 417.127 137.946 417.361C138.122 417.592 138.252 417.866 138.337 418.182C138.421 418.494 138.464 418.836 138.464 419.207V419.612H134.518V418.875H137.56V418.807C137.547 418.572 137.499 418.344 137.414 418.123C137.333 417.902 137.202 417.719 137.023 417.576C136.844 417.433 136.6 417.361 136.291 417.361C136.086 417.361 135.897 417.405 135.724 417.493C135.552 417.578 135.404 417.705 135.28 417.874C135.156 418.043 135.06 418.25 134.992 418.494C134.924 418.738 134.89 419.02 134.89 419.339V419.544C134.89 419.795 134.924 420.031 134.992 420.252C135.064 420.47 135.166 420.662 135.3 420.828C135.436 420.994 135.601 421.124 135.793 421.219C135.988 421.313 136.21 421.36 136.457 421.36C136.776 421.36 137.046 421.295 137.267 421.165C137.489 421.035 137.682 420.861 137.849 420.643L138.395 421.077C138.281 421.25 138.137 421.414 137.961 421.57C137.785 421.727 137.569 421.854 137.311 421.951C137.057 422.049 136.756 422.098 136.408 422.098ZM140.129 416.717L141.286 418.641L142.458 416.717H143.517L141.789 419.324L143.571 422H142.526L141.306 420.018L140.085 422H139.035L140.812 419.324L139.089 416.717H140.129ZM146.691 416.717V417.41H143.835V416.717H146.691ZM144.802 415.433H145.705V420.691C145.705 420.87 145.733 421.006 145.788 421.097C145.843 421.188 145.915 421.248 146.003 421.277C146.091 421.307 146.185 421.321 146.286 421.321C146.361 421.321 146.439 421.315 146.52 421.302C146.605 421.285 146.668 421.272 146.711 421.263L146.716 422C146.644 422.023 146.55 422.044 146.432 422.063C146.319 422.086 146.18 422.098 146.017 422.098C145.796 422.098 145.593 422.054 145.407 421.966C145.222 421.878 145.073 421.731 144.963 421.526C144.855 421.318 144.802 421.038 144.802 420.687V415.433Z" fill="#1B1B1B"/>
<path d="M242.056 414.891V422H241.129V414.891H242.056ZM244.342 414.891V415.662H238.848V414.891H244.342ZM246.964 422.098C246.596 422.098 246.262 422.036 245.963 421.912C245.666 421.785 245.411 421.608 245.196 421.38C244.984 421.152 244.822 420.882 244.708 420.569C244.594 420.257 244.537 419.915 244.537 419.544V419.339C244.537 418.909 244.6 418.527 244.727 418.191C244.854 417.853 245.027 417.566 245.245 417.332C245.463 417.098 245.71 416.92 245.987 416.8C246.264 416.679 246.55 416.619 246.846 416.619C247.224 416.619 247.55 416.684 247.823 416.814C248.1 416.945 248.326 417.127 248.502 417.361C248.677 417.592 248.808 417.866 248.892 418.182C248.977 418.494 249.019 418.836 249.019 419.207V419.612H245.074V418.875H248.116V418.807C248.103 418.572 248.054 418.344 247.969 418.123C247.888 417.902 247.758 417.719 247.579 417.576C247.4 417.433 247.156 417.361 246.846 417.361C246.641 417.361 246.453 417.405 246.28 417.493C246.108 417.578 245.959 417.705 245.836 417.874C245.712 418.043 245.616 418.25 245.548 418.494C245.479 418.738 245.445 419.02 245.445 419.339V419.544C245.445 419.795 245.479 420.031 245.548 420.252C245.619 420.47 245.722 420.662 245.855 420.828C245.992 420.994 246.156 421.124 246.348 421.219C246.544 421.313 246.765 421.36 247.012 421.36C247.331 421.36 247.602 421.295 247.823 421.165C248.044 421.035 248.238 420.861 248.404 420.643L248.951 421.077C248.837 421.25 248.692 421.414 248.516 421.57C248.341 421.727 248.124 421.854 247.867 421.951C247.613 422.049 247.312 422.098 246.964 422.098ZM250.684 416.717L251.842 418.641L253.013 416.717H254.073L252.344 419.324L254.127 422H253.082L251.861 420.018L250.64 422H249.591L251.368 419.324L249.644 416.717H250.684ZM257.247 416.717V417.41H254.39V416.717H257.247ZM255.357 415.433H256.26V420.691C256.26 420.87 256.288 421.006 256.344 421.097C256.399 421.188 256.47 421.248 256.558 421.277C256.646 421.307 256.741 421.321 256.842 421.321C256.916 421.321 256.995 421.315 257.076 421.302C257.161 421.285 257.224 421.272 257.266 421.263L257.271 422C257.2 422.023 257.105 422.044 256.988 422.063C256.874 422.086 256.736 422.098 256.573 422.098C256.352 422.098 256.148 422.054 255.963 421.966C255.777 421.878 255.629 421.731 255.518 421.526C255.411 421.318 255.357 421.038 255.357 420.687V415.433Z" fill="#1B1B1B"/>
<path d="M352.612 414.891V422H351.684V414.891H352.612ZM354.897 414.891V415.662H349.404V414.891H354.897ZM357.519 422.098C357.151 422.098 356.818 422.036 356.518 421.912C356.222 421.785 355.967 421.608 355.752 421.38C355.54 421.152 355.377 420.882 355.263 420.569C355.149 420.257 355.093 419.915 355.093 419.544V419.339C355.093 418.909 355.156 418.527 355.283 418.191C355.41 417.853 355.582 417.566 355.801 417.332C356.019 417.098 356.266 416.92 356.543 416.8C356.819 416.679 357.106 416.619 357.402 416.619C357.78 416.619 358.105 416.684 358.379 416.814C358.655 416.945 358.882 417.127 359.057 417.361C359.233 417.592 359.363 417.866 359.448 418.182C359.533 418.494 359.575 418.836 359.575 419.207V419.612H355.63V418.875H358.672V418.807C358.659 418.572 358.61 418.344 358.525 418.123C358.444 417.902 358.314 417.719 358.135 417.576C357.955 417.433 357.711 417.361 357.402 417.361C357.197 417.361 357.008 417.405 356.836 417.493C356.663 417.578 356.515 417.705 356.391 417.874C356.268 418.043 356.172 418.25 356.103 418.494C356.035 418.738 356.001 419.02 356.001 419.339V419.544C356.001 419.795 356.035 420.031 356.103 420.252C356.175 420.47 356.277 420.662 356.411 420.828C356.548 420.994 356.712 421.124 356.904 421.219C357.099 421.313 357.321 421.36 357.568 421.36C357.887 421.36 358.157 421.295 358.379 421.165C358.6 421.035 358.794 420.861 358.96 420.643L359.507 421.077C359.393 421.25 359.248 421.414 359.072 421.57C358.896 421.727 358.68 421.854 358.423 421.951C358.169 422.049 357.868 422.098 357.519 422.098ZM361.24 416.717L362.397 418.641L363.569 416.717H364.629L362.9 419.324L364.682 422H363.637L362.417 420.018L361.196 422H360.146L361.924 419.324L360.2 416.717H361.24ZM367.802 416.717V417.41H364.946V416.717H367.802ZM365.913 415.433H366.816V420.691C366.816 420.87 366.844 421.006 366.899 421.097C366.955 421.188 367.026 421.248 367.114 421.277C367.202 421.307 367.296 421.321 367.397 421.321C367.472 421.321 367.55 421.315 367.632 421.302C367.716 421.285 367.78 421.272 367.822 421.263L367.827 422C367.755 422.023 367.661 422.044 367.544 422.063C367.43 422.086 367.291 422.098 367.129 422.098C366.907 422.098 366.704 422.054 366.518 421.966C366.333 421.878 366.185 421.731 366.074 421.526C365.967 421.318 365.913 421.038 365.913 420.687V415.433Z" fill="#1B1B1B"/>
<path d="M463.167 414.891V422H462.24V414.891H463.167ZM465.453 414.891V415.662H459.959V414.891H465.453ZM468.075 422.098C467.707 422.098 467.373 422.036 467.074 421.912C466.778 421.785 466.522 421.608 466.307 421.38C466.096 421.152 465.933 420.882 465.819 420.569C465.705 420.257 465.648 419.915 465.648 419.544V419.339C465.648 418.909 465.711 418.527 465.838 418.191C465.965 417.853 466.138 417.566 466.356 417.332C466.574 417.098 466.821 416.92 467.098 416.8C467.375 416.679 467.661 416.619 467.958 416.619C468.335 416.619 468.661 416.684 468.934 416.814C469.211 416.945 469.437 417.127 469.613 417.361C469.789 417.592 469.919 417.866 470.003 418.182C470.088 418.494 470.13 418.836 470.13 419.207V419.612H466.185V418.875H469.227V418.807C469.214 418.572 469.165 418.344 469.081 418.123C468.999 417.902 468.869 417.719 468.69 417.576C468.511 417.433 468.267 417.361 467.958 417.361C467.752 417.361 467.564 417.405 467.391 417.493C467.219 417.578 467.07 417.705 466.947 417.874C466.823 418.043 466.727 418.25 466.659 418.494C466.59 418.738 466.556 419.02 466.556 419.339V419.544C466.556 419.795 466.59 420.031 466.659 420.252C466.73 420.47 466.833 420.662 466.966 420.828C467.103 420.994 467.267 421.124 467.459 421.219C467.655 421.313 467.876 421.36 468.124 421.36C468.443 421.36 468.713 421.295 468.934 421.165C469.155 421.035 469.349 420.861 469.515 420.643L470.062 421.077C469.948 421.25 469.803 421.414 469.627 421.57C469.452 421.727 469.235 421.854 468.978 421.951C468.724 422.049 468.423 422.098 468.075 422.098ZM471.795 416.717L472.953 418.641L474.125 416.717H475.184L473.456 419.324L475.238 422H474.193L472.972 420.018L471.751 422H470.702L472.479 419.324L470.755 416.717H471.795ZM478.358 416.717V417.41H475.501V416.717H478.358ZM476.468 415.433H477.372V420.691C477.372 420.87 477.399 421.006 477.455 421.097C477.51 421.188 477.582 421.248 477.669 421.277C477.757 421.307 477.852 421.321 477.953 421.321C478.028 421.321 478.106 421.315 478.187 421.302C478.272 421.285 478.335 421.272 478.377 421.263L478.382 422C478.311 422.023 478.216 422.044 478.099 422.063C477.985 422.086 477.847 422.098 477.684 422.098C477.463 422.098 477.259 422.054 477.074 421.966C476.888 421.878 476.74 421.731 476.629 421.526C476.522 421.318 476.468 421.038 476.468 420.687V415.433Z" fill="#1B1B1B"/>
<path d="M573.723 414.891V422H572.795V414.891H573.723ZM576.008 414.891V415.662H570.515V414.891H576.008ZM578.63 422.098C578.263 422.098 577.929 422.036 577.629 421.912C577.333 421.785 577.078 421.608 576.863 421.38C576.651 421.152 576.488 420.882 576.375 420.569C576.261 420.257 576.204 419.915 576.204 419.544V419.339C576.204 418.909 576.267 418.527 576.394 418.191C576.521 417.853 576.694 417.566 576.912 417.332C577.13 417.098 577.377 416.92 577.654 416.8C577.931 416.679 578.217 416.619 578.513 416.619C578.891 416.619 579.216 416.684 579.49 416.814C579.766 416.945 579.993 417.127 580.168 417.361C580.344 417.592 580.474 417.866 580.559 418.182C580.644 418.494 580.686 418.836 580.686 419.207V419.612H576.741V418.875H579.783V418.807C579.77 418.572 579.721 418.344 579.636 418.123C579.555 417.902 579.425 417.719 579.246 417.576C579.067 417.433 578.822 417.361 578.513 417.361C578.308 417.361 578.119 417.405 577.947 417.493C577.774 417.578 577.626 417.705 577.502 417.874C577.379 418.043 577.283 418.25 577.214 418.494C577.146 418.738 577.112 419.02 577.112 419.339V419.544C577.112 419.795 577.146 420.031 577.214 420.252C577.286 420.47 577.389 420.662 577.522 420.828C577.659 420.994 577.823 421.124 578.015 421.219C578.21 421.313 578.432 421.36 578.679 421.36C578.998 421.36 579.268 421.295 579.49 421.165C579.711 421.035 579.905 420.861 580.071 420.643L580.618 421.077C580.504 421.25 580.359 421.414 580.183 421.57C580.007 421.727 579.791 421.854 579.534 421.951C579.28 422.049 578.979 422.098 578.63 422.098ZM582.351 416.717L583.508 418.641L584.68 416.717H585.74L584.011 419.324L585.793 422H584.749L583.528 420.018L582.307 422H581.257L583.035 419.324L581.311 416.717H582.351ZM588.914 416.717V417.41H586.057V416.717H588.914ZM587.024 415.433H587.927V420.691C587.927 420.87 587.955 421.006 588.01 421.097C588.066 421.188 588.137 421.248 588.225 421.277C588.313 421.307 588.407 421.321 588.508 421.321C588.583 421.321 588.661 421.315 588.743 421.302C588.827 421.285 588.891 421.272 588.933 421.263L588.938 422C588.866 422.023 588.772 422.044 588.655 422.063C588.541 422.086 588.403 422.098 588.24 422.098C588.018 422.098 587.815 422.054 587.629 421.966C587.444 421.878 587.296 421.731 587.185 421.526C587.078 421.318 587.024 421.038 587.024 420.687V415.433Z" fill="#1B1B1B"/>
<path d="M684.279 414.891V422H683.351V414.891H684.279ZM686.564 414.891V415.662H681.071V414.891H686.564ZM689.186 422.098C688.818 422.098 688.484 422.036 688.185 421.912C687.889 421.785 687.633 421.608 687.418 421.38C687.207 421.152 687.044 420.882 686.93 420.569C686.816 420.257 686.759 419.915 686.759 419.544V419.339C686.759 418.909 686.823 418.527 686.95 418.191C687.077 417.853 687.249 417.566 687.467 417.332C687.685 417.098 687.933 416.92 688.209 416.8C688.486 416.679 688.773 416.619 689.069 416.619C689.446 416.619 689.772 416.684 690.045 416.814C690.322 416.945 690.548 417.127 690.724 417.361C690.9 417.592 691.03 417.866 691.115 418.182C691.199 418.494 691.242 418.836 691.242 419.207V419.612H687.296V418.875H690.338V418.807C690.325 418.572 690.276 418.344 690.192 418.123C690.11 417.902 689.98 417.719 689.801 417.576C689.622 417.433 689.378 417.361 689.069 417.361C688.864 417.361 688.675 417.405 688.502 417.493C688.33 417.578 688.182 417.705 688.058 417.874C687.934 418.043 687.838 418.25 687.77 418.494C687.702 418.738 687.667 419.02 687.667 419.339V419.544C687.667 419.795 687.702 420.031 687.77 420.252C687.842 420.47 687.944 420.662 688.078 420.828C688.214 420.994 688.379 421.124 688.571 421.219C688.766 421.313 688.987 421.36 689.235 421.36C689.554 421.36 689.824 421.295 690.045 421.165C690.267 421.035 690.46 420.861 690.626 420.643L691.173 421.077C691.059 421.25 690.914 421.414 690.739 421.57C690.563 421.727 690.346 421.854 690.089 421.951C689.835 422.049 689.534 422.098 689.186 422.098ZM692.907 416.717L694.064 418.641L695.236 416.717H696.295L694.567 419.324L696.349 422H695.304L694.083 420.018L692.863 422H691.813L693.59 419.324L691.867 416.717H692.907ZM699.469 416.717V417.41H696.613V416.717H699.469ZM697.579 415.433H698.483V420.691C698.483 420.87 698.51 421.006 698.566 421.097C698.621 421.188 698.693 421.248 698.781 421.277C698.869 421.307 698.963 421.321 699.064 421.321C699.139 421.321 699.217 421.315 699.298 421.302C699.383 421.285 699.446 421.272 699.489 421.263L699.494 422C699.422 422.023 699.328 422.044 699.21 422.063C699.096 422.086 698.958 422.098 698.795 422.098C698.574 422.098 698.37 422.054 698.185 421.966C697.999 421.878 697.851 421.731 697.741 421.526C697.633 421.318 697.579 421.038 697.579 420.687V415.433Z" fill="#1B1B1B"/>
<path d="M794.834 414.891V422H793.906V414.891H794.834ZM797.119 414.891V415.662H791.626V414.891H797.119ZM799.741 422.098C799.374 422.098 799.04 422.036 798.74 421.912C798.444 421.785 798.189 421.608 797.974 421.38C797.762 421.152 797.6 420.882 797.486 420.569C797.372 420.257 797.315 419.915 797.315 419.544V419.339C797.315 418.909 797.378 418.527 797.505 418.191C797.632 417.853 797.805 417.566 798.023 417.332C798.241 417.098 798.488 416.92 798.765 416.8C799.042 416.679 799.328 416.619 799.624 416.619C800.002 416.619 800.327 416.684 800.601 416.814C800.878 416.945 801.104 417.127 801.28 417.361C801.455 417.592 801.586 417.866 801.67 418.182C801.755 418.494 801.797 418.836 801.797 419.207V419.612H797.852V418.875H800.894V418.807C800.881 418.572 800.832 418.344 800.747 418.123C800.666 417.902 800.536 417.719 800.357 417.576C800.178 417.433 799.934 417.361 799.624 417.361C799.419 417.361 799.23 417.405 799.058 417.493C798.885 417.578 798.737 417.705 798.614 417.874C798.49 418.043 798.394 418.25 798.325 418.494C798.257 418.738 798.223 419.02 798.223 419.339V419.544C798.223 419.795 798.257 420.031 798.325 420.252C798.397 420.47 798.5 420.662 798.633 420.828C798.77 420.994 798.934 421.124 799.126 421.219C799.322 421.313 799.543 421.36 799.79 421.36C800.109 421.36 800.379 421.295 800.601 421.165C800.822 421.035 801.016 420.861 801.182 420.643L801.729 421.077C801.615 421.25 801.47 421.414 801.294 421.57C801.118 421.727 800.902 421.854 800.645 421.951C800.391 422.049 800.09 422.098 799.741 422.098ZM803.462 416.717L804.619 418.641L805.791 416.717H806.851L805.122 419.324L806.905 422H805.86L804.639 420.018L803.418 422H802.368L804.146 419.324L802.422 416.717H803.462ZM810.025 416.717V417.41H807.168V416.717H810.025ZM808.135 415.433H809.038V420.691C809.038 420.87 809.066 421.006 809.121 421.097C809.177 421.188 809.248 421.248 809.336 421.277C809.424 421.307 809.518 421.321 809.619 421.321C809.694 421.321 809.772 421.315 809.854 421.302C809.938 421.285 810.002 421.272 810.044 421.263L810.049 422C809.977 422.023 809.883 422.044 809.766 422.063C809.652 422.086 809.514 422.098 809.351 422.098C809.129 422.098 808.926 422.054 808.74 421.966C808.555 421.878 808.407 421.731 808.296 421.526C808.189 421.318 808.135 421.038 808.135 420.687V415.433Z" fill="#1B1B1B"/>
<path d="M905.39 414.891V422H904.462V414.891H905.39ZM907.675 414.891V415.662H902.182V414.891H907.675ZM910.297 422.098C909.929 422.098 909.595 422.036 909.296 421.912C909 421.785 908.744 421.608 908.529 421.38C908.318 421.152 908.155 420.882 908.041 420.569C907.927 420.257 907.87 419.915 907.87 419.544V419.339C907.87 418.909 907.934 418.527 908.061 418.191C908.188 417.853 908.36 417.566 908.578 417.332C908.796 417.098 909.044 416.92 909.32 416.8C909.597 416.679 909.883 416.619 910.18 416.619C910.557 416.619 910.883 416.684 911.156 416.814C911.433 416.945 911.659 417.127 911.835 417.361C912.011 417.592 912.141 417.866 912.226 418.182C912.31 418.494 912.353 418.836 912.353 419.207V419.612H908.407V418.875H911.449V418.807C911.436 418.572 911.387 418.344 911.303 418.123C911.221 417.902 911.091 417.719 910.912 417.576C910.733 417.433 910.489 417.361 910.18 417.361C909.975 417.361 909.786 417.405 909.613 417.493C909.441 417.578 909.293 417.705 909.169 417.874C909.045 418.043 908.949 418.25 908.881 418.494C908.812 418.738 908.778 419.02 908.778 419.339V419.544C908.778 419.795 908.812 420.031 908.881 420.252C908.952 420.47 909.055 420.662 909.188 420.828C909.325 420.994 909.49 421.124 909.682 421.219C909.877 421.313 910.098 421.36 910.346 421.36C910.665 421.36 910.935 421.295 911.156 421.165C911.378 421.035 911.571 420.861 911.737 420.643L912.284 421.077C912.17 421.25 912.025 421.414 911.85 421.57C911.674 421.727 911.457 421.854 911.2 421.951C910.946 422.049 910.645 422.098 910.297 422.098ZM914.018 416.717L915.175 418.641L916.347 416.717H917.406L915.678 419.324L917.46 422H916.415L915.194 420.018L913.974 422H912.924L914.701 419.324L912.978 416.717H914.018ZM920.58 416.717V417.41H917.724V416.717H920.58ZM918.69 415.433H919.594V420.691C919.594 420.87 919.621 421.006 919.677 421.097C919.732 421.188 919.804 421.248 919.892 421.277C919.979 421.307 920.074 421.321 920.175 421.321C920.25 421.321 920.328 421.315 920.409 421.302C920.494 421.285 920.557 421.272 920.6 421.263L920.604 422C920.533 422.023 920.438 422.044 920.321 422.063C920.207 422.086 920.069 422.098 919.906 422.098C919.685 422.098 919.481 422.054 919.296 421.966C919.11 421.878 918.962 421.731 918.852 421.526C918.744 421.318 918.69 421.038 918.69 420.687V415.433Z" fill="#1B1B1B"/>
<path d="M1006.16 414.891V422H1005.24V414.891H1006.16ZM1008.45 414.891V415.662H1002.96V414.891H1008.45ZM1011.07 422.098C1010.7 422.098 1010.37 422.036 1010.07 421.912C1009.77 421.785 1009.52 421.608 1009.3 421.38C1009.09 421.152 1008.93 420.882 1008.82 420.569C1008.7 420.257 1008.65 419.915 1008.65 419.544V419.339C1008.65 418.909 1008.71 418.527 1008.84 418.191C1008.96 417.853 1009.13 417.566 1009.35 417.332C1009.57 417.098 1009.82 416.92 1010.1 416.8C1010.37 416.679 1010.66 416.619 1010.95 416.619C1011.33 416.619 1011.66 416.684 1011.93 416.814C1012.21 416.945 1012.43 417.127 1012.61 417.361C1012.79 417.592 1012.92 417.866 1013 418.182C1013.09 418.494 1013.13 418.836 1013.13 419.207V419.612H1009.18V418.875H1012.22V418.807C1012.21 418.572 1012.16 418.344 1012.08 418.123C1012 417.902 1011.87 417.719 1011.69 417.576C1011.51 417.433 1011.26 417.361 1010.95 417.361C1010.75 417.361 1010.56 417.405 1010.39 417.493C1010.22 417.578 1010.07 417.705 1009.94 417.874C1009.82 418.043 1009.72 418.25 1009.66 418.494C1009.59 418.738 1009.55 419.02 1009.55 419.339V419.544C1009.55 419.795 1009.59 420.031 1009.66 420.252C1009.73 420.47 1009.83 420.662 1009.96 420.828C1010.1 420.994 1010.26 421.124 1010.46 421.219C1010.65 421.313 1010.87 421.36 1011.12 421.36C1011.44 421.36 1011.71 421.295 1011.93 421.165C1012.15 421.035 1012.35 420.861 1012.51 420.643L1013.06 421.077C1012.95 421.25 1012.8 421.414 1012.62 421.57C1012.45 421.727 1012.23 421.854 1011.98 421.951C1011.72 422.049 1011.42 422.098 1011.07 422.098ZM1014.79 416.717L1015.95 418.641L1017.12 416.717H1018.18L1016.45 419.324L1018.23 422H1017.19L1015.97 420.018L1014.75 422H1013.7L1015.48 419.324L1013.75 416.717H1014.79ZM1021.35 416.717V417.41H1018.5V416.717H1021.35ZM1019.47 415.433H1020.37V420.691C1020.37 420.87 1020.4 421.006 1020.45 421.097C1020.51 421.188 1020.58 421.248 1020.67 421.277C1020.75 421.307 1020.85 421.321 1020.95 421.321C1021.02 421.321 1021.1 421.315 1021.18 421.302C1021.27 421.285 1021.33 421.272 1021.37 421.263L1021.38 422C1021.31 422.023 1021.21 422.044 1021.1 422.063C1020.98 422.086 1020.84 422.098 1020.68 422.098C1020.46 422.098 1020.26 422.054 1020.07 421.966C1019.89 421.878 1019.74 421.731 1019.63 421.526C1019.52 421.318 1019.47 421.038 1019.47 420.687V415.433Z" fill="#1B1B1B"/>
<path d="M16.4287 404.879V405.963C16.4287 406.546 16.3766 407.037 16.2725 407.438C16.1683 407.838 16.0186 408.16 15.8232 408.404C15.6279 408.648 15.3919 408.826 15.1152 408.937C14.8418 409.044 14.5326 409.098 14.1875 409.098C13.9141 409.098 13.6618 409.063 13.4307 408.995C13.1995 408.927 12.9912 408.818 12.8057 408.668C12.6234 408.515 12.4671 408.316 12.3369 408.072C12.2067 407.828 12.1074 407.532 12.0391 407.184C11.9707 406.835 11.9365 406.428 11.9365 405.963V404.879C11.9365 404.296 11.9886 403.808 12.0928 403.414C12.2002 403.02 12.3516 402.704 12.5469 402.467C12.7422 402.226 12.9766 402.053 13.25 401.949C13.5267 401.845 13.8359 401.793 14.1777 401.793C14.4544 401.793 14.7083 401.827 14.9395 401.896C15.1738 401.961 15.3822 402.066 15.5645 402.213C15.7467 402.356 15.9014 402.548 16.0283 402.789C16.1585 403.027 16.2578 403.318 16.3262 403.663C16.3945 404.008 16.4287 404.413 16.4287 404.879ZM15.5205 406.109V404.728C15.5205 404.409 15.501 404.129 15.4619 403.888C15.4261 403.644 15.3724 403.435 15.3008 403.263C15.2292 403.09 15.138 402.95 15.0273 402.843C14.9199 402.735 14.7946 402.657 14.6514 402.608C14.5114 402.556 14.3535 402.53 14.1777 402.53C13.9629 402.53 13.7725 402.571 13.6064 402.652C13.4404 402.73 13.3005 402.856 13.1865 403.028C13.0758 403.201 12.9912 403.427 12.9326 403.707C12.874 403.987 12.8447 404.327 12.8447 404.728V406.109C12.8447 406.428 12.8626 406.71 12.8984 406.954C12.9375 407.198 12.9945 407.41 13.0693 407.589C13.1442 407.765 13.2354 407.91 13.3428 408.023C13.4502 408.137 13.5739 408.222 13.7139 408.277C13.8571 408.329 14.015 408.355 14.1875 408.355C14.4089 408.355 14.6025 408.313 14.7686 408.229C14.9346 408.144 15.0729 408.012 15.1836 407.833C15.2975 407.651 15.3822 407.418 15.4375 407.135C15.4928 406.848 15.5205 406.507 15.5205 406.109Z" fill="#1B1B1B"/>
<path d="M10.999 341.258V342H6.3457V341.351L8.6748 338.758C8.96126 338.439 9.18262 338.169 9.33887 337.947C9.49837 337.723 9.60905 337.522 9.6709 337.347C9.736 337.168 9.76855 336.985 9.76855 336.8C9.76855 336.565 9.71973 336.354 9.62207 336.165C9.52767 335.973 9.3877 335.82 9.20215 335.706C9.0166 335.592 8.79199 335.535 8.52832 335.535C8.21257 335.535 7.94889 335.597 7.7373 335.721C7.52897 335.841 7.37272 336.01 7.26855 336.229C7.16439 336.447 7.1123 336.697 7.1123 336.98H6.20898C6.20898 336.58 6.29688 336.214 6.47266 335.882C6.64844 335.55 6.90885 335.286 7.25391 335.091C7.59896 334.892 8.02376 334.793 8.52832 334.793C8.97754 334.793 9.36165 334.873 9.68066 335.032C9.99967 335.188 10.2438 335.41 10.4131 335.696C10.5856 335.979 10.6719 336.312 10.6719 336.692C10.6719 336.901 10.6361 337.112 10.5645 337.327C10.4961 337.539 10.4001 337.75 10.2764 337.962C10.1559 338.174 10.0143 338.382 9.85156 338.587C9.69206 338.792 9.52116 338.994 9.33887 339.192L7.43457 341.258H10.999ZM16.4287 337.879V338.963C16.4287 339.546 16.3766 340.037 16.2725 340.438C16.1683 340.838 16.0186 341.16 15.8232 341.404C15.6279 341.648 15.3919 341.826 15.1152 341.937C14.8418 342.044 14.5326 342.098 14.1875 342.098C13.9141 342.098 13.6618 342.063 13.4307 341.995C13.1995 341.927 12.9912 341.818 12.8057 341.668C12.6234 341.515 12.4671 341.316 12.3369 341.072C12.2067 340.828 12.1074 340.532 12.0391 340.184C11.9707 339.835 11.9365 339.428 11.9365 338.963V337.879C11.9365 337.296 11.9886 336.808 12.0928 336.414C12.2002 336.02 12.3516 335.704 12.5469 335.467C12.7422 335.226 12.9766 335.053 13.25 334.949C13.5267 334.845 13.8359 334.793 14.1777 334.793C14.4544 334.793 14.7083 334.827 14.9395 334.896C15.1738 334.961 15.3822 335.066 15.5645 335.213C15.7467 335.356 15.9014 335.548 16.0283 335.789C16.1585 336.027 16.2578 336.318 16.3262 336.663C16.3945 337.008 16.4287 337.413 16.4287 337.879ZM15.5205 339.109V337.728C15.5205 337.409 15.501 337.129 15.4619 336.888C15.4261 336.644 15.3724 336.435 15.3008 336.263C15.2292 336.09 15.138 335.95 15.0273 335.843C14.9199 335.735 14.7946 335.657 14.6514 335.608C14.5114 335.556 14.3535 335.53 14.1777 335.53C13.9629 335.53 13.7725 335.571 13.6064 335.652C13.4404 335.73 13.3005 335.856 13.1865 336.028C13.0758 336.201 12.9912 336.427 12.9326 336.707C12.874 336.987 12.8447 337.327 12.8447 337.728V339.109C12.8447 339.428 12.8626 339.71 12.8984 339.954C12.9375 340.198 12.9945 340.41 13.0693 340.589C13.1442 340.765 13.2354 340.91 13.3428 341.023C13.4502 341.137 13.5739 341.222 13.7139 341.277C13.8571 341.329 14.015 341.355 14.1875 341.355C14.4089 341.355 14.6025 341.313 14.7686 341.229C14.9346 341.144 15.0729 341.012 15.1836 340.833C15.2975 340.651 15.3822 340.418 15.4375 340.135C15.4928 339.848 15.5205 339.507 15.5205 339.109Z" fill="#1B1B1B"/>
<path d="M11.1455 272.607V273.35H6.00879V272.817L9.19238 267.891H9.92969L9.13867 269.316L7.03418 272.607H11.1455ZM10.1543 267.891V275H9.25098V267.891H10.1543ZM16.4287 270.879V271.963C16.4287 272.546 16.3766 273.037 16.2725 273.438C16.1683 273.838 16.0186 274.16 15.8232 274.404C15.6279 274.648 15.3919 274.826 15.1152 274.937C14.8418 275.044 14.5326 275.098 14.1875 275.098C13.9141 275.098 13.6618 275.063 13.4307 274.995C13.1995 274.927 12.9912 274.818 12.8057 274.668C12.6234 274.515 12.4671 274.316 12.3369 274.072C12.2067 273.828 12.1074 273.532 12.0391 273.184C11.9707 272.835 11.9365 272.428 11.9365 271.963V270.879C11.9365 270.296 11.9886 269.808 12.0928 269.414C12.2002 269.02 12.3516 268.704 12.5469 268.467C12.7422 268.226 12.9766 268.053 13.25 267.949C13.5267 267.845 13.8359 267.793 14.1777 267.793C14.4544 267.793 14.7083 267.827 14.9395 267.896C15.1738 267.961 15.3822 268.066 15.5645 268.213C15.7467 268.356 15.9014 268.548 16.0283 268.789C16.1585 269.027 16.2578 269.318 16.3262 269.663C16.3945 270.008 16.4287 270.413 16.4287 270.879ZM15.5205 272.109V270.728C15.5205 270.409 15.501 270.129 15.4619 269.888C15.4261 269.644 15.3724 269.435 15.3008 269.263C15.2292 269.09 15.138 268.95 15.0273 268.843C14.9199 268.735 14.7946 268.657 14.6514 268.608C14.5114 268.556 14.3535 268.53 14.1777 268.53C13.9629 268.53 13.7725 268.571 13.6064 268.652C13.4404 268.73 13.3005 268.856 13.1865 269.028C13.0758 269.201 12.9912 269.427 12.9326 269.707C12.874 269.987 12.8447 270.327 12.8447 270.728V272.109C12.8447 272.428 12.8626 272.71 12.8984 272.954C12.9375 273.198 12.9945 273.41 13.0693 273.589C13.1442 273.765 13.2354 273.91 13.3428 274.023C13.4502 274.137 13.5739 274.222 13.7139 274.277C13.8571 274.329 14.015 274.355 14.1875 274.355C14.4089 274.355 14.6025 274.313 14.7686 274.229C14.9346 274.144 15.0729 274.012 15.1836 273.833C15.2975 273.651 15.3822 273.418 15.4375 273.135C15.4928 272.848 15.5205 272.507 15.5205 272.109Z" fill="#1B1B1B"/>
<path d="M9.80762 201.881H9.88574V202.647H9.80762C9.3291 202.647 8.92871 202.726 8.60645 202.882C8.28418 203.035 8.02865 203.242 7.83984 203.502C7.65104 203.759 7.51432 204.049 7.42969 204.371C7.34831 204.693 7.30762 205.021 7.30762 205.353V206.397C7.30762 206.713 7.34505 206.993 7.41992 207.237C7.49479 207.478 7.59733 207.682 7.72754 207.848C7.85775 208.014 8.00423 208.139 8.16699 208.224C8.33301 208.308 8.50553 208.351 8.68457 208.351C8.8929 208.351 9.07845 208.312 9.24121 208.233C9.40397 208.152 9.54069 208.04 9.65137 207.896C9.7653 207.75 9.85156 207.577 9.91016 207.379C9.96875 207.18 9.99805 206.962 9.99805 206.725C9.99805 206.513 9.97201 206.31 9.91992 206.114C9.86784 205.916 9.78809 205.74 9.68066 205.587C9.57324 205.431 9.43815 205.309 9.27539 205.221C9.11589 205.13 8.92546 205.084 8.7041 205.084C8.45345 205.084 8.21908 205.146 8.00098 205.27C7.78613 205.39 7.60872 205.549 7.46875 205.748C7.33203 205.943 7.25391 206.157 7.23438 206.388L6.75586 206.383C6.80143 206.018 6.88607 205.707 7.00977 205.45C7.13672 205.19 7.29297 204.978 7.47852 204.815C7.66732 204.649 7.87728 204.529 8.1084 204.454C8.34277 204.376 8.59017 204.337 8.85059 204.337C9.2054 204.337 9.51139 204.404 9.76855 204.537C10.0257 204.671 10.2373 204.85 10.4033 205.074C10.5693 205.296 10.6914 205.546 10.7695 205.826C10.8509 206.103 10.8916 206.388 10.8916 206.681C10.8916 207.016 10.8444 207.33 10.75 207.623C10.6556 207.916 10.514 208.173 10.3252 208.395C10.1396 208.616 9.91016 208.788 9.63672 208.912C9.36328 209.036 9.0459 209.098 8.68457 209.098C8.30046 209.098 7.96517 209.02 7.67871 208.863C7.39225 208.704 7.15462 208.492 6.96582 208.229C6.77702 207.965 6.63542 207.672 6.54102 207.35C6.44661 207.027 6.39941 206.7 6.39941 206.368V205.943C6.39941 205.442 6.44987 204.951 6.55078 204.469C6.65169 203.987 6.82585 203.551 7.07324 203.16C7.32389 202.77 7.67057 202.459 8.11328 202.228C8.55599 201.996 9.12077 201.881 9.80762 201.881ZM16.4287 204.879V205.963C16.4287 206.546 16.3766 207.037 16.2725 207.438C16.1683 207.838 16.0186 208.16 15.8232 208.404C15.6279 208.648 15.3919 208.826 15.1152 208.937C14.8418 209.044 14.5326 209.098 14.1875 209.098C13.9141 209.098 13.6618 209.063 13.4307 208.995C13.1995 208.927 12.9912 208.818 12.8057 208.668C12.6234 208.515 12.4671 208.316 12.3369 208.072C12.2067 207.828 12.1074 207.532 12.0391 207.184C11.9707 206.835 11.9365 206.428 11.9365 205.963V204.879C11.9365 204.296 11.9886 203.808 12.0928 203.414C12.2002 203.02 12.3516 202.704 12.5469 202.467C12.7422 202.226 12.9766 202.053 13.25 201.949C13.5267 201.845 13.8359 201.793 14.1777 201.793C14.4544 201.793 14.7083 201.827 14.9395 201.896C15.1738 201.961 15.3822 202.066 15.5645 202.213C15.7467 202.356 15.9014 202.548 16.0283 202.789C16.1585 203.027 16.2578 203.318 16.3262 203.663C16.3945 204.008 16.4287 204.413 16.4287 204.879ZM15.5205 206.109V204.728C15.5205 204.409 15.501 204.129 15.4619 203.888C15.4261 203.644 15.3724 203.435 15.3008 203.263C15.2292 203.09 15.138 202.95 15.0273 202.843C14.9199 202.735 14.7946 202.657 14.6514 202.608C14.5114 202.556 14.3535 202.53 14.1777 202.53C13.9629 202.53 13.7725 202.571 13.6064 202.652C13.4404 202.73 13.3005 202.856 13.1865 203.028C13.0758 203.201 12.9912 203.427 12.9326 203.707C12.874 203.987 12.8447 204.327 12.8447 204.728V206.109C12.8447 206.428 12.8626 206.71 12.8984 206.954C12.9375 207.198 12.9945 207.41 13.0693 207.589C13.1442 207.765 13.2354 207.91 13.3428 208.023C13.4502 208.137 13.5739 208.222 13.7139 208.277C13.8571 208.329 14.015 208.355 14.1875 208.355C14.4089 208.355 14.6025 208.313 14.7686 208.229C14.9346 208.144 15.0729 208.012 15.1836 207.833C15.2975 207.651 15.3822 207.418 15.4375 207.135C15.4928 206.848 15.5205 206.507 15.5205 206.109Z" fill="#1B1B1B"/>
<path d="M10.8232 140.076C10.8232 140.509 10.7223 140.877 10.5205 141.18C10.3219 141.479 10.0518 141.707 9.70996 141.863C9.37142 142.02 8.98893 142.098 8.5625 142.098C8.13607 142.098 7.75195 142.02 7.41016 141.863C7.06836 141.707 6.79818 141.479 6.59961 141.18C6.40104 140.877 6.30176 140.509 6.30176 140.076C6.30176 139.793 6.35547 139.534 6.46289 139.3C6.57357 139.062 6.72819 138.855 6.92676 138.68C7.12858 138.504 7.36621 138.369 7.63965 138.274C7.91634 138.177 8.2207 138.128 8.55273 138.128C8.98893 138.128 9.37793 138.213 9.71973 138.382C10.0615 138.548 10.3301 138.777 10.5254 139.07C10.724 139.363 10.8232 139.699 10.8232 140.076ZM9.91504 140.057C9.91504 139.793 9.85807 139.56 9.74414 139.358C9.63021 139.153 9.4707 138.994 9.26562 138.88C9.06055 138.766 8.82292 138.709 8.55273 138.709C8.27604 138.709 8.03678 138.766 7.83496 138.88C7.63639 138.994 7.48177 139.153 7.37109 139.358C7.26042 139.56 7.20508 139.793 7.20508 140.057C7.20508 140.33 7.25879 140.564 7.36621 140.76C7.47689 140.952 7.63314 141.1 7.83496 141.204C8.04004 141.305 8.28255 141.355 8.5625 141.355C8.84245 141.355 9.08333 141.305 9.28516 141.204C9.48698 141.1 9.6416 140.952 9.74902 140.76C9.8597 140.564 9.91504 140.33 9.91504 140.057ZM10.6572 136.741C10.6572 137.086 10.5661 137.397 10.3838 137.674C10.2015 137.951 9.95247 138.169 9.63672 138.328C9.32096 138.488 8.96289 138.567 8.5625 138.567C8.1556 138.567 7.79264 138.488 7.47363 138.328C7.15788 138.169 6.91048 137.951 6.73145 137.674C6.55241 137.397 6.46289 137.086 6.46289 136.741C6.46289 136.328 6.55241 135.976 6.73145 135.687C6.91374 135.397 7.16276 135.175 7.47852 135.022C7.79427 134.869 8.15397 134.793 8.55762 134.793C8.96452 134.793 9.32585 134.869 9.6416 135.022C9.95736 135.175 10.2048 135.397 10.3838 135.687C10.5661 135.976 10.6572 136.328 10.6572 136.741ZM9.75391 136.756C9.75391 136.518 9.70345 136.308 9.60254 136.126C9.50163 135.944 9.36165 135.8 9.18262 135.696C9.00358 135.589 8.79525 135.535 8.55762 135.535C8.31999 135.535 8.11165 135.586 7.93262 135.687C7.75684 135.784 7.61849 135.924 7.51758 136.106C7.41992 136.289 7.37109 136.505 7.37109 136.756C7.37109 137 7.41992 137.213 7.51758 137.396C7.61849 137.578 7.75846 137.719 7.9375 137.82C8.11654 137.921 8.32487 137.972 8.5625 137.972C8.80013 137.972 9.00684 137.921 9.18262 137.82C9.36165 137.719 9.50163 137.578 9.60254 137.396C9.70345 137.213 9.75391 137 9.75391 136.756ZM16.4287 137.879V138.963C16.4287 139.546 16.3766 140.037 16.2725 140.438C16.1683 140.838 16.0186 141.16 15.8232 141.404C15.6279 141.648 15.3919 141.826 15.1152 141.937C14.8418 142.044 14.5326 142.098 14.1875 142.098C13.9141 142.098 13.6618 142.063 13.4307 141.995C13.1995 141.927 12.9912 141.818 12.8057 141.668C12.6234 141.515 12.4671 141.316 12.3369 141.072C12.2067 140.828 12.1074 140.532 12.0391 140.184C11.9707 139.835 11.9365 139.428 11.9365 138.963V137.879C11.9365 137.296 11.9886 136.808 12.0928 136.414C12.2002 136.02 12.3516 135.704 12.5469 135.467C12.7422 135.226 12.9766 135.053 13.25 134.949C13.5267 134.845 13.8359 134.793 14.1777 134.793C14.4544 134.793 14.7083 134.827 14.9395 134.896C15.1738 134.961 15.3822 135.066 15.5645 135.213C15.7467 135.356 15.9014 135.548 16.0283 135.789C16.1585 136.027 16.2578 136.318 16.3262 136.663C16.3945 137.008 16.4287 137.413 16.4287 137.879ZM15.5205 139.109V137.728C15.5205 137.409 15.501 137.129 15.4619 136.888C15.4261 136.644 15.3724 136.435 15.3008 136.263C15.2292 136.09 15.138 135.95 15.0273 135.843C14.9199 135.735 14.7946 135.657 14.6514 135.608C14.5114 135.556 14.3535 135.53 14.1777 135.53C13.9629 135.53 13.7725 135.571 13.6064 135.652C13.4404 135.73 13.3005 135.856 13.1865 136.028C13.0758 136.201 12.9912 136.427 12.9326 136.707C12.874 136.987 12.8447 137.327 12.8447 137.728V139.109C12.8447 139.428 12.8626 139.71 12.8984 139.954C12.9375 140.198 12.9945 140.41 13.0693 140.589C13.1442 140.765 13.2354 140.91 13.3428 141.023C13.4502 141.137 13.5739 141.222 13.7139 141.277C13.8571 141.329 14.015 141.355 14.1875 141.355C14.4089 141.355 14.6025 141.313 14.7686 141.229C14.9346 141.144 15.0729 141.012 15.1836 140.833C15.2975 140.651 15.3822 140.418 15.4375 140.135C15.4928 139.848 15.5205 139.507 15.5205 139.109Z" fill="#1B1B1B"/>
<path d="M3.68457 67.8516V75H2.78125V68.9795L0.959961 69.6436V68.8281L3.54297 67.8516H3.68457ZM10.8037 70.8789V71.9629C10.8037 72.5456 10.7516 73.0371 10.6475 73.4375C10.5433 73.8379 10.3936 74.1602 10.1982 74.4043C10.0029 74.6484 9.76693 74.8258 9.49023 74.9365C9.2168 75.0439 8.90755 75.0977 8.5625 75.0977C8.28906 75.0977 8.03678 75.0635 7.80566 74.9951C7.57454 74.9268 7.36621 74.8177 7.18066 74.668C6.99837 74.515 6.84212 74.3164 6.71191 74.0723C6.58171 73.8281 6.48242 73.5319 6.41406 73.1836C6.3457 72.8353 6.31152 72.4284 6.31152 71.9629V70.8789C6.31152 70.2962 6.36361 69.8079 6.46777 69.4141C6.5752 69.0202 6.72656 68.7044 6.92188 68.4668C7.11719 68.2259 7.35156 68.0534 7.625 67.9492C7.90169 67.8451 8.21094 67.793 8.55273 67.793C8.82943 67.793 9.08333 67.8271 9.31445 67.8955C9.54883 67.9606 9.75716 68.0664 9.93945 68.2129C10.1217 68.3561 10.2764 68.5482 10.4033 68.7891C10.5335 69.0267 10.6328 69.318 10.7012 69.6631C10.7695 70.0081 10.8037 70.4134 10.8037 70.8789ZM9.89551 72.1094V70.7275C9.89551 70.4085 9.87598 70.1286 9.83691 69.8877C9.80111 69.6436 9.7474 69.4352 9.67578 69.2627C9.60417 69.0902 9.51302 68.9502 9.40234 68.8428C9.29492 68.7354 9.1696 68.6572 9.02637 68.6084C8.88639 68.5563 8.72852 68.5303 8.55273 68.5303C8.33789 68.5303 8.14746 68.571 7.98145 68.6523C7.81543 68.7305 7.67546 68.8558 7.56152 69.0283C7.45085 69.2008 7.36621 69.4271 7.30762 69.707C7.24902 69.987 7.21973 70.3271 7.21973 70.7275V72.1094C7.21973 72.4284 7.23763 72.71 7.27344 72.9541C7.3125 73.1982 7.36947 73.4098 7.44434 73.5889C7.51921 73.7646 7.61035 73.9095 7.71777 74.0234C7.8252 74.1374 7.94889 74.222 8.08887 74.2773C8.2321 74.3294 8.38997 74.3555 8.5625 74.3555C8.78385 74.3555 8.97754 74.3132 9.14355 74.2285C9.30957 74.1439 9.44792 74.012 9.55859 73.833C9.67253 73.6507 9.75716 73.418 9.8125 73.1348C9.86784 72.8483 9.89551 72.5065 9.89551 72.1094ZM16.4287 70.8789V71.9629C16.4287 72.5456 16.3766 73.0371 16.2725 73.4375C16.1683 73.8379 16.0186 74.1602 15.8232 74.4043C15.6279 74.6484 15.3919 74.8258 15.1152 74.9365C14.8418 75.0439 14.5326 75.0977 14.1875 75.0977C13.9141 75.0977 13.6618 75.0635 13.4307 74.9951C13.1995 74.9268 12.9912 74.8177 12.8057 74.668C12.6234 74.515 12.4671 74.3164 12.3369 74.0723C12.2067 73.8281 12.1074 73.5319 12.0391 73.1836C11.9707 72.8353 11.9365 72.4284 11.9365 71.9629V70.8789C11.9365 70.2962 11.9886 69.8079 12.0928 69.4141C12.2002 69.0202 12.3516 68.7044 12.5469 68.4668C12.7422 68.2259 12.9766 68.0534 13.25 67.9492C13.5267 67.8451 13.8359 67.793 14.1777 67.793C14.4544 67.793 14.7083 67.8271 14.9395 67.8955C15.1738 67.9606 15.3822 68.0664 15.5645 68.2129C15.7467 68.3561 15.9014 68.5482 16.0283 68.7891C16.1585 69.0267 16.2578 69.318 16.3262 69.6631C16.3945 70.0081 16.4287 70.4134 16.4287 70.8789ZM15.5205 72.1094V70.7275C15.5205 70.4085 15.501 70.1286 15.4619 69.8877C15.4261 69.6436 15.3724 69.4352 15.3008 69.2627C15.2292 69.0902 15.138 68.9502 15.0273 68.8428C14.9199 68.7354 14.7946 68.6572 14.6514 68.6084C14.5114 68.5563 14.3535 68.5303 14.1777 68.5303C13.9629 68.5303 13.7725 68.571 13.6064 68.6523C13.4404 68.7305 13.3005 68.8558 13.1865 69.0283C13.0758 69.2008 12.9912 69.4271 12.9326 69.707C12.874 69.987 12.8447 70.3271 12.8447 70.7275V72.1094C12.8447 72.4284 12.8626 72.71 12.8984 72.9541C12.9375 73.1982 12.9945 73.4098 13.0693 73.5889C13.1442 73.7646 13.2354 73.9095 13.3428 74.0234C13.4502 74.1374 13.5739 74.222 13.7139 74.2773C13.8571 74.3294 14.015 74.3555 14.1875 74.3555C14.4089 74.3555 14.6025 74.3132 14.7686 74.2285C14.9346 74.1439 15.0729 74.012 15.1836 73.833C15.2975 73.6507 15.3822 73.418 15.4375 73.1348C15.4928 72.8483 15.5205 72.5065 15.5205 72.1094Z" fill="#1B1B1B"/>
<path d="M3.68457 1.85156V9H2.78125V2.97949L0.959961 3.64355V2.82812L3.54297 1.85156H3.68457ZM10.999 8.25781V9H6.3457V8.35059L8.6748 5.75781C8.96126 5.4388 9.18262 5.16862 9.33887 4.94727C9.49837 4.72266 9.60905 4.52246 9.6709 4.34668C9.736 4.16764 9.76855 3.98535 9.76855 3.7998C9.76855 3.56543 9.71973 3.35384 9.62207 3.16504C9.52767 2.97298 9.3877 2.81999 9.20215 2.70605C9.0166 2.59212 8.79199 2.53516 8.52832 2.53516C8.21257 2.53516 7.94889 2.59701 7.7373 2.7207C7.52897 2.84115 7.37272 3.01042 7.26855 3.22852C7.16439 3.44661 7.1123 3.69727 7.1123 3.98047H6.20898C6.20898 3.58008 6.29688 3.21387 6.47266 2.88184C6.64844 2.5498 6.90885 2.28613 7.25391 2.09082C7.59896 1.89225 8.02376 1.79297 8.52832 1.79297C8.97754 1.79297 9.36165 1.87272 9.68066 2.03223C9.99967 2.18848 10.2438 2.40983 10.4131 2.69629C10.5856 2.97949 10.6719 3.31152 10.6719 3.69238C10.6719 3.90072 10.6361 4.1123 10.5645 4.32715C10.4961 4.53874 10.4001 4.75033 10.2764 4.96191C10.1559 5.1735 10.0143 5.38184 9.85156 5.58691C9.69206 5.79199 9.52116 5.99382 9.33887 6.19238L7.43457 8.25781H10.999ZM16.4287 4.87891V5.96289C16.4287 6.54557 16.3766 7.03711 16.2725 7.4375C16.1683 7.83789 16.0186 8.16016 15.8232 8.4043C15.6279 8.64844 15.3919 8.82585 15.1152 8.93652C14.8418 9.04395 14.5326 9.09766 14.1875 9.09766C13.9141 9.09766 13.6618 9.06348 13.4307 8.99512C13.1995 8.92676 12.9912 8.81771 12.8057 8.66797C12.6234 8.51497 12.4671 8.31641 12.3369 8.07227C12.2067 7.82812 12.1074 7.5319 12.0391 7.18359C11.9707 6.83529 11.9365 6.42839 11.9365 5.96289V4.87891C11.9365 4.29622 11.9886 3.80794 12.0928 3.41406C12.2002 3.02018 12.3516 2.70443 12.5469 2.4668C12.7422 2.22591 12.9766 2.05339 13.25 1.94922C13.5267 1.84505 13.8359 1.79297 14.1777 1.79297C14.4544 1.79297 14.7083 1.82715 14.9395 1.89551C15.1738 1.96061 15.3822 2.06641 15.5645 2.21289C15.7467 2.35612 15.9014 2.54818 16.0283 2.78906C16.1585 3.02669 16.2578 3.31803 16.3262 3.66309C16.3945 4.00814 16.4287 4.41341 16.4287 4.87891ZM15.5205 6.10938V4.72754C15.5205 4.40853 15.501 4.12858 15.4619 3.8877C15.4261 3.64355 15.3724 3.43522 15.3008 3.2627C15.2292 3.09017 15.138 2.9502 15.0273 2.84277C14.9199 2.73535 14.7946 2.65723 14.6514 2.6084C14.5114 2.55632 14.3535 2.53027 14.1777 2.53027C13.9629 2.53027 13.7725 2.57096 13.6064 2.65234C13.4404 2.73047 13.3005 2.85579 13.1865 3.02832C13.0758 3.20085 12.9912 3.42708 12.9326 3.70703C12.874 3.98698 12.8447 4.32715 12.8447 4.72754V6.10938C12.8447 6.42839 12.8626 6.70996 12.8984 6.9541C12.9375 7.19824 12.9945 7.40983 13.0693 7.58887C13.1442 7.76465 13.2354 7.90951 13.3428 8.02344C13.4502 8.13737 13.5739 8.22201 13.7139 8.27734C13.8571 8.32943 14.015 8.35547 14.1875 8.35547C14.4089 8.35547 14.6025 8.31315 14.7686 8.22852C14.9346 8.14388 15.0729 8.01204 15.1836 7.83301C15.2975 7.65072 15.3822 7.41797 15.4375 7.13477C15.4928 6.84831 15.5205 6.50651 15.5205 6.10938Z" fill="#1B1B1B"/>
<path d="M27 365C27 365 93.3333 365 137.556 365C181.778 365 203.889 365 248.111 368.333C292.333 371.667 314.444 388.333 358.667 388.333C402.889 388.333 425 118.333 469.222 118.333C513.444 118.333 535.556 355 579.778 355C624 355 646.111 208.333 690.333 208.333C734.556 208.333 756.667 335 800.889 335C845.111 335 867.222 81.6667 911.444 81.6667C955.667 81.6667 1022 355 1022 355" stroke="#FFB800" stroke-width="2"/>
<path d="M27 369C25.9393 369 24.922 368.579 24.1719 367.829C23.4218 367.079 23.0003 366.062 23 365.001C22.9997 363.94 23.4208 362.923 24.1705 362.173C24.9203 361.422 25.9373 361.001 26.998 361C28.0587 360.999 29.0762 361.42 29.8267 362.17C30.5772 362.919 30.9992 363.936 31 364.997C31.0008 366.058 30.5803 367.075 29.8309 367.826C29.0815 368.577 28.0647 368.999 27.004 369H27Z" fill="#2E2100"/>
<path d="M137 369C135.939 369 134.922 368.579 134.172 367.829C133.422 367.079 133 366.062 133 365.001C133 363.94 133.421 362.923 134.171 362.173C134.92 361.422 135.937 361.001 136.998 361C138.059 360.999 139.076 361.42 139.827 362.17C140.577 362.919 140.999 363.936 141 364.997C141.001 366.058 140.58 367.075 139.831 367.826C139.082 368.577 138.065 368.999 137.004 369H137Z" fill="#2E2100"/>
<path d="M248 372C246.939 372 245.922 371.579 245.172 370.829C244.422 370.079 244 369.062 244 368.001C244 366.94 244.421 365.923 245.171 365.173C245.92 364.422 246.937 364.001 247.998 364C249.059 363.999 250.076 364.42 250.827 365.17C251.577 365.919 251.999 366.936 252 367.997C252.001 369.058 251.58 370.075 250.831 370.826C250.082 371.577 249.065 371.999 248.004 372H248Z" fill="#2E2100"/>
<path d="M358 392C356.939 392 355.922 391.579 355.172 390.829C354.422 390.079 354 389.062 354 388.001C354 386.94 354.421 385.923 355.171 385.173C355.92 384.422 356.937 384.001 357.998 384C359.059 383.999 360.076 384.42 360.827 385.17C361.577 385.919 361.999 386.936 362 387.997C362.001 389.058 361.58 390.075 360.831 390.826C360.082 391.577 359.065 391.999 358.004 392H358Z" fill="#2E2100"/>
<path d="M469 122C467.939 122 466.922 121.579 466.172 120.829C465.422 120.079 465 119.062 465 118.001C465 116.94 465.421 115.923 466.171 115.173C466.92 114.422 467.937 114.001 468.998 114C470.059 113.999 471.076 114.42 471.827 115.17C472.577 115.919 472.999 116.936 473 117.997C473.001 119.058 472.58 120.075 471.831 120.826C471.082 121.577 470.065 121.999 469.004 122H469Z" fill="#2E2100"/>
<path d="M579 359C577.939 359 576.922 358.579 576.172 357.829C575.422 357.079 575 356.062 575 355.001C575 353.94 575.421 352.923 576.171 352.173C576.92 351.422 577.937 351.001 578.998 351C580.059 350.999 581.076 351.42 581.827 352.17C582.577 352.919 582.999 353.936 583 354.997C583.001 356.058 582.58 357.075 581.831 357.826C581.082 358.577 580.065 358.999 579.004 359H579Z" fill="#2E2100"/>
<path d="M690 212C688.939 212 687.922 211.579 687.172 210.829C686.422 210.079 686 209.062 686 208.001C686 206.94 686.421 205.923 687.171 205.173C687.92 204.422 688.937 204.001 689.998 204C691.059 203.999 692.076 204.42 692.827 205.17C693.577 205.919 693.999 206.936 694 207.997C694.001 209.058 693.58 210.075 692.831 210.826C692.082 211.577 691.065 211.999 690.004 212H690Z" fill="#2E2100"/>
<path d="M800 339C798.939 339 797.922 338.579 797.172 337.829C796.422 337.079 796 336.062 796 335.001C796 333.94 796.421 332.923 797.171 332.173C797.92 331.422 798.937 331.001 799.998 331C801.059 330.999 802.076 331.42 802.827 332.17C803.577 332.919 803.999 333.936 804 334.997C804.001 336.058 803.58 337.075 802.831 337.826C802.082 338.577 801.065 338.999 800.004 339H800Z" fill="#2E2100"/>
<path d="M911 86C909.939 86 908.922 85.5787 908.172 84.8288C907.422 84.0789 907 83.0617 907 82.001C907 80.9403 907.421 79.9229 908.171 79.1726C908.92 78.4223 909.937 78.0005 910.998 78C912.059 77.9995 913.076 78.4203 913.827 79.1698C914.577 79.9194 914.999 80.9363 915 81.997C915.001 83.0577 914.58 84.0753 913.831 84.826C913.082 85.5766 912.065 85.9989 911.004 86H911Z" fill="#2E2100"/>
<path d="M1022 359C1020.94 359 1019.92 358.579 1019.17 357.829C1018.42 357.079 1018 356.062 1018 355.001C1018 353.94 1018.42 352.923 1019.17 352.173C1019.92 351.422 1020.94 351.001 1022 351C1023.06 350.999 1024.08 351.42 1024.83 352.17C1025.58 352.919 1026 353.936 1026 354.997C1026 356.058 1025.58 357.075 1024.83 357.826C1024.08 358.577 1023.06 358.999 1022 359H1022Z" fill="#2E2100"/>
</svg>
